<?xml version="1.0" encoding="UTF-8"?>
<svg id="_ë ì´ì´_1" data-name="ë ì´ì´ 1" xmlns="http://www.w3.org/2000/svg" viewBox="0 0 621 151.4">
  <defs>
    <style>
      .cls-1 {
        fill: #6B5FED;
      }
    </style>
  </defs>
  <path class="cls-1" d="M134.9,62.8c-3.7,0-6.7,3-6.7,6.7v50.1c-26.7,24.7-68.9,24-94.7-1.8-12.9-12.9-20-30.1-20-48.3s7.1-35.5,20-48.3c6.7-6.7,14.6-11.9,23.5-15.3l14.9-5.8h-33.2l-.7.5c-5,3.2-9.7,7-13.9,11.2C8.5,27.1,0,47.6,0,69.5s8.5,42.4,23.9,57.8c15.4,15.4,36,23.9,57.8,23.9s32.8-5.1,46.4-14.4v7.7c0,3.7,3,6.7,6.7,6.7s6.7-3,6.7-6.7v-75c0-3.7-3-6.7-6.7-6.7Z"/>
  <path class="cls-1" d="M292.3.7l-.8-.7h-27.7l11.6,5.7c15.6,7.7,25.3,23.2,25.3,40.5,0,24.9-20.2,45.1-45.1,45.1h-69.5V0h-13.4v144.6c0,3.7,3,6.7,6.7,6.7s6.7-3,6.7-6.7v-39.8h69.5c32.3,0,58.5-26.3,58.5-58.6s-8-34.4-21.8-45.6Z"/>
  <path class="cls-1" d="M400.1,127.5L345.7,0h-14.6l62.8,147.3c1.1,2.5,3.5,4.1,6.2,4.1s5.1-1.6,6.2-4.1L469,0h-14.6l-54.4,127.5Z"/>
  <path class="cls-1" d="M619.1,117.8c-2.6-2.6-6.9-2.6-9.5,0-12.9,12.9-30.1,20-48.3,20s-35.5-7.1-48.3-20c-12.9-12.9-20-30.1-20-48.3s7.1-35.5,20-48.3c6.7-6.7,14.6-11.9,23.5-15.3l14.9-5.8h-33.2l-.7.5c-5,3.2-9.7,7-13.9,11.2s0,0,0,0c-15.4,15.4-23.9,36-23.9,57.8s8.5,42.4,23.9,57.8c15.4,15.4,36,23.9,57.8,23.9s42.4-8.5,57.8-23.9c2.6-2.6,2.6-6.9,0-9.5Z"/>
</svg>
